<svg preserveAspectRatio="none" width="794.7" height="138.7" viewBox="0 0 794.7 138.7" xmlns="http://www.w3.org/2000/svg" xmlns:xlink="http://www.w3.org/1999/xlink" xml:space="preserve" overflow="visible"><defs></defs><g><rect x="0" y="0" width="794.7" height="104.3" fill="#F2F2F2"/><g opacity="0.2"><path d="M6.5 104.3C13 123.4 185.7 138.7 397.7 138.7 609.7 138.7 782.4 123.4 788.9 104.3L6.5 104.3Z" fill="#FFFFFF"/><path d="M6.6 104.3C14.3 123.2 185.8 138.4 397.8 138.4 609.8 138.4 781.3 123.2 789 104.3L6.6 104.3Z" fill="#FEFFFF"/><path d="M6.6 104.3C15.4 123 185.9 138.1 397.8 138.1 609.7 138.1 780.2 123 789 104.3L6.6 104.3Z" fill="#FEFEFF"/><path d="M6.6 104.3C16.5 122.8 185.9 137.8 397.8 137.8 609.7 137.8 779.1 122.9 789 104.3L6.6 104.3Z" fill="#FDFEFF"/><path d="M6.6 104.3C17.6 122.6 185.9 137.4 397.8 137.4 609.7 137.4 778 122.6 789 104.3L6.6 104.3Z" fill="#FDFEFE"/><path d="M6.6 104.3C18.8 122.4 186 137.1 397.8 137.1 609.6 137.1 776.8 122.4 789 104.3L6.6 104.3Z" fill="#FCFDFE"/><path d="M6.6 104.3C19.9 122.3 186 136.8 397.8 136.8 609.6 136.8 775.7 122.2 789 104.3L6.6 104.3Z" fill="#FCFDFE"/><path d="M6.6 104.3C21 122.1 186 136.5 397.8 136.5 609.6 136.5 774.6 122 789 104.3L6.6 104.3Z" fill="#FBFDFE"/><path d="M6.6 104.3C22.1 121.9 186.1 136.2 397.8 136.2 609.5 136.2 773.5 121.9 789 104.3L6.6 104.3Z" fill="#FBFCFE"/><path d="M6.6 104.3C23.2 121.7 186.1 135.9 397.8 135.9 609.4 135.9 772.3 121.7 789 104.3L6.6 104.3Z" fill="#FAFCFE"/><path d="M6.6 104.3C24.4 121.5 186.2 135.5 397.8 135.5 609.4 135.5 771.2 121.4 789 104.3L6.6 104.3Z" fill="#FAFCFE"/><path d="M6.6 104.3C25.5 121.3 186.2 135.2 397.8 135.2 609.4 135.2 770.1 121.2 789 104.3L6.6 104.3Z" fill="#F9FBFD"/><path d="M6.6 104.3C26.6 121.1 186.3 134.9 397.8 134.9 609.3 134.9 768.9 121 789 104.3L6.6 104.3Z" fill="#F9FBFD"/><path d="M6.6 104.3C27.7 120.9 186.3 134.6 397.7 134.6 609.1 134.6 767.7 120.9 788.8 104.3L6.6 104.3Z" fill="#F8FBFD"/><path d="M6.6 104.3C28.8 120.7 186.3 134.3 397.7 134.3 609.1 134.3 766.6 120.7 788.8 104.3L6.6 104.3Z" fill="#F7FAFD"/><path d="M6.6 104.3C30 120.6 186.4 134 397.8 134 609.2 134 765.6 120.5 788.9 104.3L6.6 104.3Z" fill="#F7FAFD"/><path d="M6.6 104.3C31.1 120.3 186.4 133.6 397.7 133.6 609 133.6 764.3 120.2 788.8 104.3L6.6 104.3Z" fill="#F6F9FD"/><path d="M6.6 104.3C32.2 120.1 186.5 133.3 397.7 133.3 608.9 133.3 763.2 120 788.8 104.3L6.6 104.3Z" fill="#F6F9FC"/><path d="M6.6 104.3C33.4 120 186.5 133 397.8 133 609 133 762.2 119.9 788.9 104.3L6.6 104.3Z" fill="#F5F9FC"/><path d="M6.7 104.3C34.6 119.8 186.6 132.7 397.8 132.7 609 132.7 761.1 119.7 788.9 104.3L6.7 104.3Z" fill="#F5F8FC"/><path d="M6.7 104.3C35.7 119.6 186.7 132.4 397.8 132.4 608.9 132.4 759.9 119.5 788.9 104.3L6.7 104.3Z" fill="#F4F8FC"/><path d="M6.7 104.3C36.8 119.4 186.7 132.1 397.8 132.1 608.9 132.1 758.8 119.3 788.9 104.3L6.7 104.3Z" fill="#F4F8FC"/><path d="M6.7 104.3C37.9 119.2 186.8 131.7 397.8 131.7 608.8 131.7 757.7 119 788.9 104.3L6.7 104.3Z" fill="#F3F7FC"/><path d="M6.7 104.3C39 119 186.8 131.5 397.8 131.5 608.8 131.5 756.6 119 788.9 104.4L6.7 104.3Z" fill="#F2F7FC"/><path d="M6.7 104.3C40.2 118.8 186.8 131.1 397.8 131.1 608.7 131.1 755.4 118.7 788.9 104.3L6.7 104.3Z" fill="#F2F7FB"/><path d="M6.7 104.3C41.3 118.6 186.9 130.8 397.8 130.8 608.7 130.8 754.3 118.5 788.9 104.3L6.7 104.3Z" fill="#F1F6FB"/><path d="M6.7 104.3C42.4 118.4 186.9 130.5 397.8 130.5 608.7 130.5 753.2 118.3 788.9 104.3L6.7 104.3Z" fill="#F1F6FB"/><path d="M6.7 104.3C43.5 118.2 187 130.2 397.8 130.2 608.6 130.2 752 118.1 788.9 104.3L6.7 104.3Z" fill="#F0F6FB"/><path d="M6.7 104.3C44.6 118 187 129.8 397.8 129.8 608.6 129.8 750.9 117.9 788.9 104.3L6.7 104.3Z" fill="#F0F5FB"/><path d="M6.7 104.3C45.8 117.8 187 129.5 397.8 129.5 608.5 129.5 749.8 117.7 788.9 104.3L6.7 104.3Z" fill="#EFF5FB"/><path d="M6.7 104.3C46.9 117.6 187.1 129.2 397.7 129.2 608.3 129.2 748.6 117.5 788.7 104.3L6.7 104.3Z" fill="#EEF4FA"/><path d="M6.7 104.3C48 117.5 187.1 128.9 397.7 128.9 608.3 128.9 747.4 117.3 788.7 104.3L6.7 104.3Z" fill="#EEF4FA"/><path d="M6.7 104.3C49.1 117.3 187.1 128.6 397.7 128.6 608.3 128.6 746.3 117.1 788.7 104.3L6.7 104.3Z" fill="#EDF4FA"/><path d="M6.7 104.3C50.2 117.1 187.2 128.3 397.7 128.3 608.2 128.3 745.2 117 788.7 104.3L6.7 104.3Z" fill="#EDF3FA"/><path d="M6.7 104.3C51.4 116.9 187.2 127.9 397.7 127.9 608.2 127.9 744.1 116.7 788.7 104.3L6.7 104.3Z" fill="#ECF3FA"/><path d="M6.7 104.3C52.5 116.7 187.3 127.6 397.7 127.6 608.2 127.6 742.9 116.5 788.7 104.3L6.7 104.3Z" fill="#EBF3FA"/><path d="M6.8 104.3C53.7 116.5 187.4 127.3 397.8 127.3 608.2 127.3 741.9 116.3 788.8 104.3L6.8 104.3Z" fill="#EBF2F9"/><path d="M6.8 104.3C54.8 116.3 187.4 127 397.8 127 608.2 127 740.8 116.1 788.8 104.3L6.8 104.3Z" fill="#EAF2F9"/><path d="M6.8 104.3C56 116.1 187.5 126.7 397.8 126.7 608.1 126.7 739.6 116 788.8 104.3L6.8 104.3Z" fill="#EAF2F9"/><path d="M6.8 104.3C57.1 115.9 187.5 126.3 397.8 126.3 608.1 126.3 738.5 115.7 788.8 104.3L6.8 104.3Z" fill="#E9F1F9"/><path d="M6.8 104.3C58.2 115.7 187.6 126 397.8 126 608 126 737.4 115.5 788.8 104.3L6.8 104.3Z" fill="#E9F1F9"/><path d="M6.8 104.3C59.3 115.5 187.6 125.7 397.8 125.7 608 125.7 736.3 115.3 788.8 104.3L6.8 104.3Z" fill="#E8F0F8"/><path d="M6.8 104.3C60.4 115.3 187.6 125.4 397.8 125.4 607.9 125.4 735.1 115.2 788.8 104.3L6.8 104.3Z" fill="#E8F0F8"/><path d="M6.8 104.3C61.6 115.1 187.7 125.1 397.8 125.1 607.9 125.1 734 115 788.8 104.3L6.8 104.3Z" fill="#E7F0F8"/><path d="M6.8 104.3C62.7 115 187.7 124.8 397.8 124.8 607.8 124.8 732.9 114.8 788.8 104.3L6.8 104.3Z" fill="#E6EFF8"/><path d="M6.8 104.3C63.8 114.8 187.8 124.4 397.8 124.4 607.8 124.4 731.8 114.5 788.8 104.3L6.8 104.3Z" fill="#E6EFF8"/><path d="M6.8 104.3C64.9 114.6 187.8 124.1 397.8 124.1 607.8 124.1 730.6 114.3 788.8 104.3L6.8 104.3Z" fill="#E5EFF8"/><path d="M6.8 104.3C66 114.4 187.8 123.8 397.8 123.8 607.7 123.8 729.5 114.2 788.8 104.3L6.8 104.3Z" fill="#E5EEF7"/><path d="M6.8 104.3C67.2 114.2 187.9 123.5 397.7 123.5 607.6 123.5 728.3 114 788.6 104.3L6.8 104.3Z" fill="#E4EEF7"/><path d="M6.8 104.3C68.3 114 187.9 123.2 397.7 123.2 607.5 123.2 727.2 113.8 788.6 104.3L6.8 104.3Z" fill="#E4EEF7"/><path d="M6.8 104.3C69.4 113.8 188 122.9 397.7 122.9 607.5 122.9 726 113.6 788.6 104.3L6.8 104.3Z" fill="#E3EDF7"/><path d="M6.8 104.3C70.5 113.6 188 122.5 397.7 122.5 607.4 122.5 724.9 113.3 788.6 104.3L6.8 104.3Z" fill="#E2EDF7"/><path d="M6.8 104.3C71.6 113.4 188 122.2 397.7 122.2 607.4 122.2 723.8 113.2 788.6 104.3L6.8 104.3Z" fill="#E2ECF6"/><path d="M6.8 104.3C72.8 113.2 188.1 121.9 397.7 121.9 607.3 121.9 722.6 113 788.6 104.3L6.8 104.3Z" fill="#E1ECF6"/><path d="M6.9 104.3C74 113 188.2 121.6 397.8 121.6 607.4 121.6 721.6 112.8 788.7 104.3L6.9 104.3Z" fill="#E1ECF6"/><path d="M6.9 104.3C75.1 112.8 188.3 121.3 397.8 121.3 607.3 121.3 720.5 112.6 788.7 104.3L6.9 104.3Z" fill="#E0EBF6"/><path d="M6.9 104.3C76.2 112.6 188.3 121 397.8 121 607.3 121 719.4 112.4 788.7 104.3L6.9 104.3Z" fill="#E0EBF6"/><path d="M6.9 104.3C77.4 112.5 188.3 120.6 397.8 120.6 607.3 120.6 718.2 112.2 788.7 104.3L6.9 104.3Z" fill="#DFEBF5"/><path d="M6.9 104.3C78.5 112.3 188.4 120.3 397.8 120.3 607.2 120.3 717.1 112 788.7 104.3L6.9 104.3Z" fill="#DEEAF5"/><path d="M6.9 104.3C79.6 112.1 188.4 120 397.8 120 607.2 120 716 111.8 788.7 104.3L6.9 104.3Z" fill="#DEEAF5"/><path d="M6.9 104.3C80.7 111.9 188.5 119.7 397.8 119.7 607.1 119.7 714.9 111.6 788.7 104.3L6.9 104.3Z" fill="#DDE9F5"/><path d="M6.9 104.3C81.8 111.7 188.5 119.4 397.8 119.4 607.1 119.4 713.7 111.4 788.7 104.3L6.9 104.3Z" fill="#DDE9F5"/><path d="M6.9 104.3C83 111.5 188.5 119.1 397.8 119.1 607 119.1 712.6 111.3 788.7 104.3L6.9 104.3Z" fill="#DCE9F4"/><path d="M6.9 104.3C84.1 111.3 188.6 118.7 397.8 118.7 607 118.7 711.5 111 788.7 104.3L6.9 104.3Z" fill="#DBE8F4"/><path d="M6.9 104.3C85.2 111.1 188.6 118.4 397.8 118.4 606.9 118.4 710.3 110.8 788.7 104.3L6.9 104.3Z" fill="#DBE8F4"/><path d="M6.9 104.3C86.3 110.9 188.7 118.1 397.7 118.1 606.8 118.1 709.1 110.6 788.5 104.3L6.9 104.3Z" fill="#DAE8F4"/><path d="M6.9 104.3C87.4 110.7 188.7 117.8 397.7 117.8 606.8 117.8 708 110.4 788.5 104.3L6.9 104.3Z" fill="#DAE7F4"/><path d="M6.9 104.3C88.6 110.5 188.7 117.5 397.7 117.5 606.7 117.5 706.9 110.3 788.5 104.3L6.9 104.3Z" fill="#D9E7F4"/><path d="M6.9 104.3C89.7 110.3 188.8 117.2 397.7 117.2 606.7 117.2 705.7 110.1 788.5 104.3L6.9 104.3Z" fill="#D9E6F3"/><path d="M6.9 104.3C90.8 110.2 188.8 116.8 397.7 116.8 606.6 116.8 704.6 109.8 788.5 104.3L6.9 104.3Z" fill="#D8E6F3"/><path d="M6.9 104.3C91.9 110 188.8 116.5 397.7 116.5 606.6 116.5 703.5 109.6 788.5 104.3L6.9 104.3Z" fill="#D7E6F3"/><path d="M7 104.3C93.1 109.8 189 116.2 397.8 116.2 606.6 116.2 702.5 109.4 788.6 104.3L7 104.3Z" fill="#D7E5F3"/><path d="M7 104.3C92.3 109.7 189.1 116.1 397.8 116.1 606.5 116.1 703.2 109.4 788.6 104.3L7 104.3Z" fill="#D5E3F0"/><path d="M7.1 104.3C91.6 109.6 189.3 115.9 397.8 115.9 606.3 115.9 704 109.3 788.5 104.3L7.1 104.3Z" fill="#D2E1EE"/><path d="M7.1 104.3C90.8 109.6 189.4 115.8 397.8 115.8 606.1 115.8 704.8 109.3 788.5 104.3L7.1 104.3Z" fill="#D0DEEC"/><path d="M7.2 104.3C90.1 109.5 189.7 115.6 397.8 115.6 605.9 115.6 705.6 109.2 788.4 104.3L7.2 104.3Z" fill="#CEDCE9"/><path d="M7.2 104.3C89.2 109.4 189.8 115.5 397.8 115.5 605.8 115.5 706.3 109.2 788.4 104.3L7.2 104.3Z" fill="#CCDAE7"/><path d="M7.3 104.3C88.5 109.4 190 115.3 397.8 115.3 605.6 115.3 707.1 109.1 788.3 104.3L7.3 104.3Z" fill="#CAD7E5"/><path d="M7.3 104.3C87.7 109.3 190.1 115.2 397.8 115.2 605.4 115.2 707.9 109 788.3 104.3L7.3 104.3Z" fill="#C8D5E2"/><path d="M7.4 104.3C87 109.3 190.3 115 397.8 115 605.3 115 708.7 108.9 788.2 104.3L7.4 104.3Z" fill="#C5D3E0"/><path d="M7.4 104.3C86.1 109.2 190.5 114.9 397.8 114.9 605.1 114.9 709.4 108.9 788.2 104.3L7.4 104.3Z" fill="#C3D1DE"/><path d="M7.4 104.3C85.3 109.1 190.6 114.7 397.7 114.7 604.8 114.7 710.1 108.8 788 104.3L7.4 104.3Z" fill="#C1CFDC"/><path d="M7.5 104.3C84.6 109.1 190.8 114.6 397.8 114.6 604.8 114.6 711 108.8 788.1 104.3L7.5 104.3Z" fill="#BFCCD9"/><path d="M7.5 104.3C83.8 109 190.9 114.5 397.7 114.5 604.5 114.5 711.7 108.8 787.9 104.3L7.5 104.3Z" fill="#BDCAD7"/><path d="M7.6 104.3C83 108.9 191.1 114.3 397.8 114.3 604.4 114.3 712.5 108.7 788 104.3L7.6 104.3Z" fill="#BBC8D5"/><path d="M7.6 104.3C82.2 108.9 191.3 114.2 397.7 114.2 604.1 114.2 713.2 108.6 787.8 104.3L7.6 104.3Z" fill="#B9C6D3"/><path d="M7.7 104.3C81.5 108.8 191.5 114 397.8 114 604.1 114 714.1 108.5 787.9 104.3L7.7 104.3Z" fill="#B7C4D1"/><path d="M7.7 104.3C80.7 108.7 191.6 113.9 397.7 113.9 603.8 113.9 714.8 108.5 787.7 104.3L7.7 104.3Z" fill="#B5C2CE"/><path d="M7.8 104.3C79.9 108.7 191.8 113.7 397.8 113.7 603.8 113.7 715.6 108.4 787.8 104.3L7.8 104.3Z" fill="#B2BFCC"/><path d="M7.8 104.3C79.1 108.6 191.9 113.6 397.7 113.6 603.5 113.6 716.3 108.4 787.6 104.3L7.8 104.3Z" fill="#B0BDCA"/><path d="M7.9 104.3C78.4 108.5 192.2 113.4 397.8 113.4 603.4 113.4 717.2 108.3 787.7 104.3L7.9 104.3Z" fill="#AEBBC8"/><path d="M7.9 104.3C77.6 108.5 192.3 113.3 397.7 113.3 603.1 113.3 717.9 108.3 787.5 104.3L7.9 104.3Z" fill="#ACB9C6"/><path d="M8 104.3C76.8 108.4 192.5 113.1 397.8 113.1 603.1 113.1 718.7 108.1 787.6 104.3L8 104.3Z" fill="#AAB7C4"/><path d="M8 104.3C76 108.3 192.6 113 397.7 113 602.8 113 719.4 108.1 787.4 104.3L8 104.3Z" fill="#A8B5C2"/><path d="M8.1 104.3C75.3 108.3 192.8 112.9 397.8 112.9 602.8 112.9 720.3 108.1 787.5 104.3L8.1 104.3Z" fill="#A6B3C0"/><path d="M8.1 104.3C74.5 108.2 193 112.7 397.7 112.7 602.5 112.7 720.9 108 787.3 104.3L8.1 104.3Z" fill="#A4B1BE"/><path d="M8.2 104.3C73.7 108.2 193.2 112.6 397.8 112.6 602.4 112.6 721.8 108 787.4 104.3L8.2 104.3Z" fill="#A2AFBC"/><path d="M8.2 104.3C72.9 108.1 193.3 112.4 397.7 112.4 602.1 112.4 722.5 107.9 787.2 104.3L8.2 104.3Z" fill="#9FADBA"/><path d="M8.3 104.3C72.2 108 193.5 112.3 397.8 112.3 602.1 112.3 723.4 107.9 787.3 104.3L8.3 104.3Z" fill="#9DABB8"/><path d="M8.3 104.3C71.4 108 193.6 112.1 397.7 112.1 601.8 112.1 724 107.7 787.1 104.3L8.3 104.3Z" fill="#9BA9B6"/><path d="M8.4 104.3C70.6 107.9 193.9 112 397.8 112 601.7 112 724.9 107.7 787.2 104.3L8.4 104.3Z" fill="#99A7B4"/><path d="M8.4 104.3C69.8 107.8 194 111.8 397.7 111.8 601.4 111.8 725.6 107.6 787 104.3L8.4 104.3Z" fill="#97A5B2"/><path d="M8.5 104.3C69.1 107.8 194.2 111.7 397.8 111.7 601.4 111.7 726.5 107.6 787.1 104.3L8.5 104.3Z" fill="#96A3B0"/><path d="M8.5 104.3C68.3 107.7 194.3 111.5 397.7 111.5 601.1 111.5 727.1 107.5 786.9 104.3L8.5 104.3Z" fill="#94A1AE"/><path d="M8.6 104.3C67.5 107.6 194.5 111.4 397.8 111.4 601.1 111.4 728 107.5 787 104.3L8.6 104.3Z" fill="#929FAC"/><path d="M8.6 104.3C66.7 107.6 194.7 111.3 397.7 111.3 600.7 111.3 728.7 107.5 786.8 104.3L8.6 104.3Z" fill="#909DAA"/><path d="M8.7 104.3C66 107.5 194.9 111.1 397.8 111.1 600.7 111.1 729.6 107.3 786.9 104.3L8.7 104.3Z" fill="#8E9BA8"/><path d="M8.7 104.3C65.2 107.4 195 111 397.7 111 600.4 111 730.2 107.3 786.7 104.3L8.7 104.3Z" fill="#8C99A6"/><path d="M8.8 104.3C64.5 107.4 195.2 110.8 397.8 110.8 600.4 110.8 731.1 107.2 786.8 104.3L8.8 104.3Z" fill="#8A97A4"/><path d="M8.8 104.3C63.6 107.3 195.3 110.7 397.7 110.7 600.1 110.7 731.8 107.2 786.6 104.3L8.8 104.3Z" fill="#8895A2"/><path d="M8.9 104.3C62.9 107.3 195.6 110.5 397.8 110.5 600 110.5 732.7 107.1 786.7 104.3L8.9 104.3Z" fill="#8693A0"/><path d="M8.9 104.3C62.1 107.2 195.7 110.4 397.7 110.4 599.8 110.4 733.3 107.1 786.5 104.3L8.9 104.3Z" fill="#85929E"/><path d="M9 104.3C61.4 107.1 195.9 110.2 397.8 110.2 599.7 110.2 734.2 107 786.6 104.3L9 104.3Z" fill="#83909C"/><path d="M9 104.3C60.5 107.1 196 110.1 397.7 110.1 599.4 110.1 734.9 106.9 786.4 104.3L9 104.3Z" fill="#818E9B"/><path d="M9.1 104.3C59.8 107 196.2 109.9 397.8 109.9 599.4 109.9 735.8 106.8 786.5 104.3L9.1 104.3Z" fill="#7F8C99"/><path d="M9.1 104.3C59 106.9 196.4 109.8 397.7 109.8 599 109.8 736.4 106.8 786.3 104.3L9.1 104.3Z" fill="#7D8A97"/><path d="M9.2 104.3C58.3 106.9 196.6 109.7 397.8 109.7 599 109.7 737.3 106.8 786.4 104.3L9.2 104.3Z" fill="#7C8995"/><path d="M9.2 104.3C57.4 106.8 196.7 109.5 397.7 109.5 598.7 109.5 738 106.7 786.2 104.3L9.2 104.3Z" fill="#7A8793"/><path d="M9.3 104.3C56.7 106.7 196.9 109.4 397.8 109.4 598.7 109.4 738.9 106.7 786.3 104.3L9.3 104.3Z" fill="#788592"/><path d="M9.3 104.3C55.9 106.7 197 109.2 397.7 109.2 598.4 109.2 739.5 106.6 786.1 104.3L9.3 104.3Z" fill="#768390"/><path d="M9.4 104.3C55.2 106.6 197.2 109.1 397.8 109.1 598.4 109.1 740.4 106.5 786.2 104.3L9.4 104.3Z" fill="#75828E"/><path d="M9.4 104.3C54.3 106.5 197.4 108.9 397.7 108.9 598 108.9 741.1 106.4 786 104.3L9.4 104.3Z" fill="#73808C"/><path d="M9.5 104.3C53.6 106.5 197.6 108.8 397.8 108.8 598 108.8 742 106.4 786.1 104.3L9.5 104.3Z" fill="#717E8A"/><path d="M9.5 104.3C52.8 106.4 197.7 108.6 397.7 108.6 597.7 108.6 742.6 106.3 785.9 104.3L9.5 104.3Z" fill="#6F7C89"/><path d="M9.6 104.3C52.1 106.3 197.9 108.5 397.8 108.5 597.7 108.5 743.5 106.3 786 104.3L9.6 104.3Z" fill="#6D7B87"/><path d="M9.6 104.3C51.2 106.3 198 108.3 397.7 108.3 597.4 108.3 744.2 106.2 785.8 104.3L9.6 104.3Z" fill="#6B7985"/><path d="M9.7 104.3C50.5 106.2 198.3 108.2 397.8 108.2 597.3 108.2 745.1 106.2 785.9 104.3L9.7 104.3Z" fill="#697784"/><path d="M9.7 104.3C49.7 106.2 198.4 108.1 397.7 108.1 597 108.1 745.7 106.1 785.7 104.3L9.7 104.3Z" fill="#687682"/><path d="M9.8 104.3C49 106.1 198.6 107.9 397.8 107.9 597 107.9 746.6 106 785.8 104.3L9.8 104.3Z" fill="#667480"/><path d="M9.8 104.3C48.1 106 198.7 107.8 397.7 107.8 596.7 107.8 747.3 106 785.6 104.3L9.8 104.3Z" fill="#64727F"/><path d="M9.9 104.3C47.4 106 198.9 107.6 397.8 107.6 596.6 107.6 748.2 105.9 785.7 104.3L9.9 104.3Z" fill="#62717D"/><path d="M9.9 104.3C46.6 105.9 199.1 107.5 397.7 107.5 596.3 107.5 748.8 105.9 785.5 104.3L9.9 104.3Z" fill="#616F7C"/><path d="M10 104.3C45.9 105.8 199.3 107.3 397.8 107.3 596.3 107.3 749.7 105.8 785.6 104.3L10 104.3Z" fill="#5F6E7A"/><path d="M10 104.3C45 105.8 199.4 107.2 397.7 107.2 596 107.2 750.4 105.7 785.4 104.3L10 104.3Z" fill="#5D6C78"/><path d="M10.1 104.3C44.3 105.7 199.6 107 397.8 107 596 107 751.3 105.6 785.5 104.3L10.1 104.3Z" fill="#5B6A77"/><path d="M10.1 104.3C43.5 105.6 199.7 106.9 397.7 106.9 595.7 106.9 751.9 105.6 785.3 104.3L10.1 104.3Z" fill="#5A6975"/><path d="M10.2 104.3C42.8 105.6 200 106.7 397.8 106.7 595.6 106.7 752.8 105.5 785.4 104.3L10.2 104.3Z" fill="#586774"/><path d="M10.2 104.3C41.9 105.5 200.1 106.6 397.7 106.6 595.3 106.6 753.5 105.5 785.2 104.3L10.2 104.3Z" fill="#566672"/><path d="M10.3 104.3C41.2 105.4 200.3 106.4 397.8 106.4 595.3 106.4 754.4 105.4 785.3 104.2L10.3 104.3Z" fill="#556571"/><path d="M10.3 104.3C40.4 105.4 200.4 106.3 397.7 106.3 595 106.3 755 105.4 785.1 104.3L10.3 104.3Z" fill="#53636F"/><path d="M10.4 104.3C39.7 105.3 200.6 106.2 397.8 106.2 595 106.2 755.9 105.3 785.2 104.3L10.4 104.3Z" fill="#51626E"/><path d="M10.4 104.3C38.9 105.3 200.8 106 397.7 106 594.7 106 756.6 105.2 785 104.3L10.4 104.3Z" fill="#50606C"/><path d="M10.5 104.3C38.1 105.2 201 105.9 397.8 105.9 594.6 105.9 757.5 105.2 785.1 104.3L10.5 104.3Z" fill="#4E5F6B"/></g></g></svg>